<svg width="17" height="17" viewBox="0 0 17 17" fill="none" xmlns="http://www.w3.org/2000/svg">
<path fill-rule="evenodd" clip-rule="evenodd" d="M0.805906 0.337143C1.19643 -0.0533815 1.8296 -0.053381 2.22012 0.337143L8.737 6.85402L15.1342 0.456776C15.5248 0.0662516 16.1579 0.0662513 16.5485 0.456776L16.5671 0.475401C16.9576 0.865925 16.9576 1.49909 16.5671 1.88961L10.1698 8.28686L16.6641 14.7811C17.0546 15.1716 17.0546 15.8048 16.6641 16.1953L16.6476 16.2118C16.2571 16.6023 15.6239 16.6023 15.2334 16.2118L8.73913 9.71756L2.10066 16.356C1.71013 16.7466 1.07697 16.7466 0.686445 16.356L0.667819 16.3374C0.277293 15.9469 0.277293 15.3137 0.667817 14.9232L7.3063 8.28472L0.789421 1.76784C0.398897 1.37732 0.398897 0.744153 0.789421 0.353629L0.805906 0.337143Z" fill="#949494"/>
</svg>