<svg width="16" height="16" viewBox="0 0 16 16" fill="none" xmlns="http://www.w3.org/2000/svg">
<path fill-rule="evenodd" clip-rule="evenodd" d="M1.10115 8.20499C1.10115 7.84877 1.38992 7.55999 1.74615 7.55999L7.61482 7.55999L7.61482 1.80016C7.61482 1.44341 7.90402 1.1542 8.26078 1.1542C8.61754 1.1542 8.90674 1.44341 8.90674 1.80017L8.90675 7.55999L14.7548 7.55999C15.111 7.55999 15.3998 7.84877 15.3998 8.20499C15.3998 8.56122 15.111 8.84999 14.7548 8.84999L8.90675 8.84999L8.90675 14.8271C8.90675 15.1839 8.61754 15.4731 8.26078 15.4731C7.90403 15.4731 7.61482 15.1839 7.61482 14.8271L7.61482 8.84999L1.74615 8.84999C1.38992 8.84999 1.10115 8.56122 1.10115 8.20499Z" fill="#2F2F2F"/>
</svg>
