<svg width="20" height="20" viewBox="0 0 20 20" fill="none" xmlns="http://www.w3.org/2000/svg">
<g clip-path="url(#clip0)">
<path d="M12.6149 2.44693L19.5968 14.54C19.8528 14.9835 20.0001 15.4976 20.0001 16.0465C20.0001 17.7133 18.6488 19.0646 16.9819 19.0646H10.0001L7.58557 9.99997L10.0001 0.935364C11.118 0.935364 12.0933 1.54368 12.6149 2.44693Z" fill="#3B4145"/>
<path d="M7.3852 2.44693L0.403242 14.54C0.147227 14.9835 0 15.4976 0 16.0465C0 17.7133 1.35125 19.0646 3.01813 19.0646H10V0.935364C8.88203 0.935364 7.90676 1.54368 7.3852 2.44693Z" fill="#525A61"/>
<path d="M18.8398 15.3557L11.5783 2.76271C11.251 2.19489 10.65 1.8366 10 1.81818L16.2106 18.1818H17.2075C18.2459 18.1818 19.0909 17.3358 19.0909 16.2961C19.0909 15.9659 19.0038 15.6407 18.8398 15.3557Z" fill="#FFB751"/>
<path d="M17.962 15.3559C18.1058 15.6409 18.1818 15.966 18.1818 16.2962C18.1818 17.3358 17.4429 18.1818 16.5343 18.1818H2.81882C1.76589 18.1818 0.909058 17.3358 0.909058 16.2962C0.909058 15.966 0.99734 15.6409 1.16369 15.3559L8.52687 2.7639C8.8681 2.18063 9.50214 1.81818 10.182 1.81818C10.2003 1.81818 10.2185 1.81858 10.2368 1.81944C10.8025 1.84124 11.3249 2.19865 11.6096 2.7639L17.962 15.3559Z" fill="#FFD764"/>
<path d="M10 13.8333V15.8453C10.5557 15.8453 11.0061 15.395 11.0061 14.8393C11.0061 14.2836 10.5557 13.8333 10 13.8333Z" fill="#3B4145"/>
<path d="M9.99983 13.8333C10.1109 13.8333 10.201 14.2836 10.201 14.8393C10.201 15.395 10.1109 15.8454 9.99983 15.8454C9.44409 15.8454 8.99377 15.395 8.99377 14.8393C8.99377 14.2836 9.44409 13.8333 9.99983 13.8333Z" fill="#525A61"/>
<path d="M10 5.18152V12.6262C10.5557 12.6262 11.0061 12.1755 11.0061 11.6202V6.18757C11.0061 5.63183 10.5557 5.18152 10 5.18152Z" fill="#3B4145"/>
<path d="M9.99983 5.18152C10.1109 5.18152 10.201 5.63183 10.201 6.18757V11.6202C10.201 12.1755 10.1109 12.6262 9.99983 12.6262C9.44409 12.6262 8.99377 12.1755 8.99377 11.6202V6.18757C8.99377 5.63183 9.44409 5.18152 9.99983 5.18152Z" fill="#525A61"/>
</g>
<defs>
<clipPath id="clip0">
<rect width="20" height="20" fill="white"/>
</clipPath>
</defs>
</svg>
