<svg width="24" height="24" viewBox="0 0 24 24" fill="none" xmlns="http://www.w3.org/2000/svg">
<path d="M12 23.0704C18.1141 23.0704 23.0705 18.114 23.0705 11.9999C23.0705 5.88586 18.1141 0.929443 12 0.929443C5.88598 0.929443 0.929565 5.88586 0.929565 11.9999C0.929565 18.114 5.88598 23.0704 12 23.0704Z" fill="#00ACC1"/>
<path d="M12 24C5.38373 24 0 18.6172 0 12C0 5.38373 5.38373 0 12 0C18.6172 0 24 5.38373 24 12C24 18.6172 18.6172 24 12 24ZM12 1.85902C6.40805 1.85902 1.85902 6.40805 1.85902 12C1.85902 17.592 6.40805 22.141 12 22.141C17.592 22.141 22.141 17.591 22.141 12C22.141 6.40805 17.592 1.85902 12 1.85902Z" fill="#00ACC1"/>
<path d="M10.5501 16.4152C10.301 16.4152 10.0631 16.3157 9.88737 16.1372L6.45748 12.6516C6.09776 12.2853 6.1024 11.6979 6.46864 11.3372C6.83487 10.9785 7.42325 10.9822 7.78297 11.3484L10.5232 14.1332L16.1923 7.88968C16.539 7.50953 17.1265 7.48258 17.5047 7.8265C17.8849 8.17136 17.9128 8.75879 17.5679 9.13989L11.238 16.1112C11.066 16.3008 10.8244 16.4105 10.5687 16.416C10.5622 16.4152 10.5567 16.4152 10.5501 16.4152Z" fill="white"/>
</svg>
