<svg width="146" height="93" viewBox="0 0 146 93" fill="none" xmlns="http://www.w3.org/2000/svg">
<path d="M5.04969 91.1855H2.99438L5.30046 78.217H11.8007L9.49464 91.1855H7.37542L9.34221 80.069H7.00666L5.04969 91.1855Z" fill="white"/>
<path d="M12.5581 81.3457C12.9269 79.2697 14.2397 78.0853 16.2606 78.0853C18.2815 78.0853 19.1666 79.2697 18.7978 81.3457L17.598 88.086C17.2293 90.1621 15.9164 91.3465 13.9005 91.3465C11.8845 91.3465 10.9896 90.1621 11.3584 88.086L12.5581 81.3457ZM13.3891 88.2175C13.2268 89.1435 13.5759 89.4945 14.2299 89.4945C14.8839 89.4945 15.3559 89.1435 15.5231 88.2175L16.7671 81.2143C16.9293 80.2883 16.5851 79.9373 15.9312 79.9373C15.2772 79.9373 14.8003 80.2883 14.638 81.2143L13.3891 88.2175Z" fill="white"/>
<path d="M24.0046 92.9255L24.3144 91.1855H19.9235L19.6138 92.9255H17.6125L18.2468 89.3678H19.0483C19.4821 88.8988 19.7631 88.3112 19.8547 87.6816L22.0035 78.217H27.7612L25.7944 89.3678H26.6943L26.0599 92.9255H24.0046ZM21.8805 87.6473C21.6494 88.622 21.3887 89.056 20.9954 89.3678H23.6851L25.3372 80.069H23.6014L21.8805 87.6473Z" fill="white"/>
<path d="M35.4023 81.1997L35.3188 81.6626C35.0828 82.9979 34.5222 83.851 33.529 84.2749C34.5566 84.699 34.8122 85.6833 34.5665 87.0528L34.3797 88.1103C34.0256 90.1086 32.7668 91.1855 30.7115 91.1855H27.4811L29.7871 78.217H32.8897C35.0286 78.217 35.7711 79.2016 35.4023 81.1997ZM30.574 85.3472L29.8658 89.3337H31.0411C31.7343 89.3337 32.162 89.0169 32.3343 88.052L32.5357 86.9262C32.752 85.7174 32.4226 85.3472 31.4884 85.3472H30.574ZM31.5131 80.069L30.9034 83.4806H31.7048C32.4718 83.4806 32.9979 83.149 33.1799 82.111L33.3077 81.3897C33.4699 80.4637 33.2291 80.0544 32.4964 80.0544L31.5131 80.069Z" fill="white"/>
<path d="M37.1872 91.1855H35.0776L37.3689 78.217H39.1982L37.723 86.424L38.977 83.5731L41.6125 78.2122H43.8742L41.5682 91.1807H39.7193L41.3419 82.0476L39.9652 85.2447L37.1872 91.1855Z" fill="white"/>
<path d="M50.3497 83.4609L53.713 78.217H55.7683L52.3264 83.4806L53.4819 91.1855H51.3677L50.5218 85.4398L49.8434 86.4145L48.9977 91.1759H46.962L47.8077 86.4145L47.4783 85.4398L44.5872 91.2002H42.4777L46.3768 83.5487L44.7445 78.217H46.7998L48.2748 83.4609L49.209 78.217H51.2447L50.3497 83.4609Z" fill="white"/>
<path d="M56.3928 91.1855H54.3375L56.6484 78.217H58.6989L57.7155 83.773H60.0511L61.0345 78.217H63.1291L60.823 91.1855H58.7284L59.7118 85.6298H57.3811L56.3928 91.1855Z" fill="white"/>
<path d="M63.9207 81.3457C64.2895 79.2697 65.6023 78.0853 67.6231 78.0853C69.644 78.0853 70.5291 79.2697 70.1603 81.3457L68.9605 88.086C68.5919 90.1621 67.2789 91.3465 65.263 91.3465C63.2471 91.3465 62.3521 90.1621 62.721 88.086L63.9207 81.3457ZM64.7567 88.2175C64.5894 89.1435 64.9385 89.4945 65.5924 89.4945C66.2464 89.4945 66.7184 89.1435 66.8856 88.2175L68.1296 81.2143C68.2969 80.2883 67.9476 79.9373 67.2937 79.9373C66.6397 79.9373 66.1629 80.2883 66.0005 81.2143L64.7567 88.2175Z" fill="white"/>
<path d="M71.8271 91.1855H69.7178L72.0238 78.217H73.8529L72.3779 86.4241L73.6365 83.5732L76.2672 78.2122H78.5289L76.2229 91.1807H74.3742L75.9968 82.0477L74.6053 85.2448L71.8271 91.1855ZM76.7442 75.327C76.7132 75.5826 76.5818 75.8157 76.3782 75.9754C76.1745 76.1352 75.9155 76.2087 75.6575 76.1799C75.1165 76.1799 74.8658 76.0141 74.9347 75.327H73.6612C73.4743 76.5893 74.0054 77.3836 75.4461 77.3836C76.057 77.4336 76.6637 77.2474 77.1393 76.8641C77.6149 76.4807 77.9227 75.9299 77.9979 75.327H76.7442Z" fill="white"/>
<path d="M87.4483 86.3509L87.1387 88.0714C86.7699 90.1475 85.5162 91.3318 83.5001 91.3318C81.4842 91.3318 80.6434 90.1475 81.0122 88.0714L82.212 81.3457C82.5806 79.2697 83.8394 78.0853 85.8553 78.0853C87.8714 78.0853 88.7122 79.2697 88.3138 81.3457L88.0926 82.6032H86.1258L86.3715 81.2143C86.5339 80.2883 86.1897 79.9373 85.5358 79.9373C84.8818 79.9373 84.4048 80.2883 84.2426 81.2143L82.9986 88.2175C82.8313 89.1435 83.1854 89.475 83.8394 89.475C84.4934 89.475 84.9605 89.1435 85.1277 88.2175L85.4571 86.3655L87.4483 86.3509Z" fill="white"/>
<path d="M89.425 81.3457C89.7939 79.2697 91.1067 78.0853 93.1227 78.0853C95.1386 78.0853 96.0334 79.2697 95.6648 81.3457L94.4651 88.086C94.0962 90.1621 92.7834 91.3465 90.7673 91.3465C88.7515 91.3465 87.8566 90.1621 88.2253 88.086L89.425 81.3457ZM90.2561 88.2175C90.0938 89.1435 90.443 89.4945 91.097 89.4945C91.7509 89.4945 92.2229 89.1435 92.3851 88.2175L93.6339 81.2143C93.7963 80.2883 93.4471 79.9373 92.7931 79.9373C92.1392 79.9373 91.6672 80.2883 91.505 81.2143L90.2561 88.2175Z" fill="white"/>
<path d="M102.057 86.3509L101.752 88.0714C101.383 90.1475 100.124 91.3318 98.1086 91.3318C96.0925 91.3318 95.2567 90.1475 95.65 88.0714L96.8251 81.3457C97.1939 79.2697 98.4527 78.0853 100.469 78.0853C102.485 78.0853 103.32 79.2697 102.927 81.3457L102.701 82.6032H100.798L101.049 81.2143C101.211 80.2883 100.862 79.9373 100.208 79.9373C99.554 79.9373 99.082 80.2883 98.9148 81.2143L97.6708 88.2175C97.5086 89.1435 97.8576 89.475 98.5116 89.475C99.1656 89.475 99.6377 89.1435 99.7999 88.2175L100.129 86.3655L102.057 86.3509Z" fill="white"/>
<path d="M104.161 78.217H110.509L110.18 80.069H108.036L106.069 91.1855H104.014L105.98 80.069H103.832L104.161 78.217Z" fill="white"/>
<path d="M115.756 91.1855H113.681L113.744 88.8317H111.222L110.45 91.1855H108.562L112.958 78.217H115.967L115.756 91.1855ZM111.822 87.0723H113.789L113.966 80.5174L111.822 87.0723Z" fill="white"/>
<path d="M124.631 81.1997L124.547 81.6626C124.311 82.9979 123.746 83.851 122.757 84.2749C123.785 84.699 124.036 85.6833 123.795 87.0528L123.608 88.1103C123.249 90.1086 121.995 91.1855 119.94 91.1855H116.709L119.016 78.217H122.113C124.242 78.217 124.985 79.2016 124.631 81.1997ZM119.802 85.3472L119.094 89.3337H120.269C120.958 89.3337 121.39 89.0169 121.562 88.052L121.764 86.9262C121.976 85.7174 121.651 85.3472 120.717 85.3472H119.802ZM120.741 80.069L120.132 83.4806H120.958C121.725 83.4806 122.251 83.149 122.433 82.111L122.561 81.3897C122.728 80.4637 122.482 80.0544 121.754 80.0544L120.741 80.069Z" fill="white"/>
<path d="M126.622 89.2214L126.273 91.1708H124.306L124.655 89.2214H126.622Z" fill="white"/>
<path d="M135.596 81.4239L135.295 83.1102C134.927 85.1814 133.717 86.312 131.662 86.312H130.678L129.813 91.1855H127.758L130.064 78.217H133.093C135.158 78.217 135.964 79.3477 135.596 81.4239ZM131.8 80.069L131.018 84.4553H132.001C132.655 84.4553 133.063 84.1578 133.226 83.232L133.575 81.2824C133.737 80.3564 133.437 80.0592 132.783 80.0592L131.8 80.069Z" fill="white"/>
<path d="M138.733 89.7186H137.97C135.915 89.7186 135.104 88.5929 135.473 86.5167L136.102 82.9785C136.471 80.9024 137.68 79.7766 139.736 79.7766H140.503L140.778 78.217H142.799L142.524 79.7766H143.286C145.341 79.7766 146.152 80.9024 145.779 82.9785L145.154 86.5167C144.78 88.5929 143.571 89.7186 141.515 89.7186H140.753L140.493 91.1807H138.472L138.733 89.7186ZM140.208 81.57H139.441C138.787 81.57 138.354 81.921 138.187 82.847L137.513 86.6484C137.346 87.5744 137.656 87.9448 138.31 87.9448H139.077L140.208 81.57ZM142.228 81.57L141.093 87.9448H141.86C142.514 87.9448 142.951 87.5744 143.118 86.6484L143.792 82.847C143.959 81.921 143.645 81.57 142.991 81.57H142.228Z" fill="white"/>
<path d="M5.30542 78.2218L0 81.8332H5.90038" fill="white"/>
<path d="M77.0704 61.0224C77.0704 62.4487 77.6385 63.6068 78.3395 63.6068C79.0404 63.6068 79.6085 62.4487 79.6085 61.0224C79.6085 59.5961 79.0404 58.4431 78.3395 58.4431C77.6385 58.4431 77.0704 59.5961 77.0704 61.0224Z" fill="white"/>
<path d="M52.0854 57.2443C52.0854 58.3671 52.5509 59.2775 53.1293 59.2775C53.7074 59.2775 54.1731 58.3671 54.1731 57.2443C54.1731 56.1215 53.7074 55.2111 53.1293 55.2111C52.5562 55.2111 52.0854 56.1215 52.0854 57.2443Z" fill="white"/>
<path d="M95.2913 51.3118V51.9996L98.1771 51.7669L106.932 53.8659L107.131 59.2422H118.966C118.966 59.2422 119.365 58.5239 119.662 56.8196C119.959 55.1151 121.264 52.7887 121.264 52.7887L126.114 51.681V50.7251L116.546 50.5936L117.109 48.3025H107.925L107.592 50.4724L99.4664 50.7251H97.4681L101.209 49.7067L97.1648 50.4724L95.2913 51.3118Z" fill="white"/>
<path d="M47.6287 56.6626C47.6287 57.6439 47.9868 58.443 48.4319 58.443C48.8771 58.443 49.2353 57.6439 49.2353 56.6626C49.2353 55.6815 48.8771 54.8824 48.4319 54.8824C47.9868 54.8824 47.6287 55.6815 47.6287 56.6626Z" fill="white"/>
<path d="M65.2866 58.4431V60.4255L76.1343 61.1315C76.037 59.1995 77.4487 57.1228 78.662 57.1228C79.9764 57.1228 80.2797 59.1272 80.2797 59.1272L83.3846 59.5709V60.4863L84.8069 60.0918V50.8213L68.6586 51.6407L65.2866 58.4431Z" fill="white"/>
<path d="M59.3666 59.055L63.9153 59.3989C63.9153 59.3989 64.3605 59.6467 64.9848 58.1951C65.6038 56.7436 64.9848 55.4438 64.9848 55.4438L59.4178 55.2111C59.4178 55.2111 58.5939 55.8485 58.4967 57.2443C58.3944 58.6353 59.3666 59.055 59.3666 59.055Z" fill="white"/>
<path d="M46.8049 56.6627H47.2757C47.2603 54.23 48.6673 54.4425 48.6673 54.4425C49.8904 54.6094 49.5628 57.1331 49.5628 57.1331L51.6043 57.639C51.4866 56.4302 52.1008 54.6752 53.2469 54.756C54.3931 54.8369 54.8382 56.1317 54.8382 56.1317V58.701L56.6955 59.1105V55.0494L55.0889 55.0746L53.1293 52.0046L47.0812 52.1514L46.8049 56.6627Z" fill="white"/>
<path d="M85.0731 50.2497V50.4672L85.2163 50.4621L94.4622 50.2599V50.0322L85.0731 50.2497Z" fill="#08A1B5"/>
<path d="M78.3395 22.6505V34.5257L84.1111 32.8466C84.1777 32.8264 84.2543 32.8214 84.3311 32.8314L114.771 37.6411L122.2 36.4778C122.451 36.1139 122.86 35.8762 123.326 35.8762C123.643 35.8762 123.93 35.9824 124.165 36.1694L126.815 35.7952L126.708 32.8769L114.776 35.8762L95.4293 31.9918L78.3395 22.6505Z" fill="white"/>
<path d="M99.574 43.0375C99.574 43.5687 99.794 44.0389 100.126 44.3071H101.441C101.769 44.0389 101.989 43.5687 101.989 43.0375C101.989 42.2031 101.452 41.5203 100.781 41.5203C100.116 41.5253 99.574 42.2031 99.574 43.0375Z" fill="white"/>
<path d="M122.676 43.1641C122.676 43.6445 122.876 44.0644 123.183 44.3071H124.39C124.692 44.0644 124.892 43.6445 124.892 43.1641C124.892 42.4104 124.395 41.7985 123.786 41.7985C123.172 41.7985 122.676 42.4104 122.676 43.1641Z" fill="white"/>
<path d="M78.3395 39.6995V45.4551L84.2492 44.7775L93.9301 44.3071H97.7267L97.8598 40.4987H103.678V44.3071H121.632V40.4987H125.761V44.3071H127.133L126.964 39.8108V40.3014H95.6186C95.5879 40.3014 95.5624 40.2964 95.5317 40.2964L84.2595 38.3492L81.6449 38.9459V43.4935L78.3395 43.9946V39.6995Z" fill="white"/>
<path d="M75.2488 45.8091L78.3394 45.4551V34.5256L77.8891 34.6571L75.4023 35.3755L75.3871 36.4071L75.341 39.3709L75.3307 40.3874L75.2488 45.8091Z" fill="white"/>
<path d="M87.7617 61.9302C87.7617 64.0363 88.6681 65.7414 89.7808 65.7414C90.8997 65.7414 91.8061 64.0363 91.8061 61.9302C91.8061 61.6969 91.7935 61.4636 91.7747 61.2421C91.6061 59.4653 90.7808 58.125 89.7869 58.125C89.0994 58.125 88.4931 58.7712 88.1306 59.7583C87.893 60.3686 87.7617 61.1164 87.7617 61.9302Z" fill="white"/>
<path d="M47.0812 51.9491L53.2828 51.7669L55.2067 54.7812L66.6784 54.9786L68.4027 51.241L85.0782 50.4621V50.2496H97.3671L96.7786 50.2294L85.2163 50.4621V59.4278L87.5596 59.7284C87.8565 58.8938 88.3685 57.6239 89.784 57.6239C91.1995 57.7241 91.8703 59.1333 92.0084 60.6304L94.7541 62.0288L97.7626 62.0035C97.865 62.398 98.9549 63.6725 98.9549 63.6725V64.9773L101.36 65.205V65.6652L125.296 64.8763C126.621 64.2844 126.427 61.2044 126.427 61.2044H128.412C128.412 61.2044 128.079 54.7154 128.079 53.5371C128.079 52.3588 129.144 51.7064 129.144 51.7064L125.761 52.3638L121.515 53.3146C121.515 53.3146 120.22 56.1012 120.22 57.1483C120.22 58.2001 119.642 59.8691 119.642 59.8691H106.461L106.328 54.4272L97.906 52.2626H94.8871V51.0842L97.3671 50.2496C98.2162 50.3268 98.5402 50.1524 99.3893 50.2294L99.7684 50.2496L107.259 50.0322L107.556 47.6703H118.168L117.375 50.0322L125.163 50.2496L126.156 50.2294L127.153 44.823H125.761V44.3071H121.632V44.823H103.678V44.3071H97.7268L97.4682 50.0322C97.4682 50.0322 88.706 45.1162 84.0293 45.5107L78.3343 46.1228L75.2335 46.4565L46.4315 49.5467V50.6291C46.3854 51.2157 47.0812 51.9491 47.0812 51.9491Z" fill="white"/>
<path d="M49.4449 43.9429V45.2882L49.7161 45.2275V43.8671L49.4449 43.9429Z" fill="white"/>
<path d="M46.4315 44.3071L46.4366 45.9761L47.6288 45.7029V44.474L46.5747 44.7775L46.4315 44.3071Z" fill="white"/>
<path d="M46.4364 46.4869V49.1118L74.6399 45.88L74.7115 40.5289L51.4508 45.8396L51.3895 48.1305L49.7163 48.3379V46.239L49.445 46.2997V48.3379L47.6287 48.5352V46.7144L46.549 46.9624L46.4364 46.4869Z" fill="white"/>
<path d="M51.4766 44.828L74.7219 39.5124L74.7577 36.5891L51.5124 43.341L51.4766 44.828Z" fill="white"/>
<path d="M46.4315 38.8045V43.7912L74.7731 35.5625L74.9011 25.7508L46.4315 38.8045Z" fill="white"/>
<path d="M46.4315 38.3341C46.4315 38.3341 47.1273 34.1565 48.0228 33.762L87.7902 10.0167C87.7902 10.0167 101.426 3.7402 118.864 12.3077L126.621 30.7325L126.891 36.7791L127.295 44.3955H97.6704L93.9303 39.986L83.2567 33.3718L77.884 34.6571L75.3974 35.3805L75.5559 24.719L46.4315 38.3341ZM52.9502 31.6176L51.9575 35.421L52.9502 34.9606L53.9428 31.2584L52.9502 31.6176ZM63.3934 25.7508L61.8533 30.9145L63.6953 29.8324L64.9387 24.719L63.3934 25.7508ZM65.5834 24.1981L64.2888 29.8272L67.4203 28.0064L68.7149 22.6505L65.5834 24.1981ZM69.7588 22.0132L68.1673 27.5665L70.1066 26.7826L71.35 20.8348L69.7588 22.0132ZM72.1481 20.3899L70.7565 26.1907L73.0436 25.3563L74.287 19.1153L72.1481 20.3899ZM93.9303 29.8324L88.1637 10.4769L85.2164 12.2471L84.2494 20.1522C87.8721 26.0088 93.9303 29.8324 93.9303 29.8324ZM83.2567 19.7525L83.3897 19.7171L83.8552 13.7542L80.4732 15.5901L79.2809 21.5884L83.2567 19.7525Z" fill="white"/>
<path d="M101.426 66.9095L41.3555 57.5377L101.272 67.8046L101.426 66.9095Z" fill="white"/>
<path d="M126.007 66.2853L65.9368 56.9138L125.854 67.1806L126.007 66.2853Z" fill="white"/>
<path d="M77.0443 60.5271C77.0443 62.1879 77.7232 63.5366 78.5609 63.5366C79.3987 63.5366 80.0776 62.1879 80.0776 60.5271C80.0776 58.8664 79.3987 57.5237 78.5609 57.5237C77.7232 57.5237 77.0443 58.8664 77.0443 60.5271Z" fill="white"/>
<path d="M52.0854 57.2445C52.0854 58.3673 52.5509 59.2777 53.1293 59.2777C53.7074 59.2777 54.1731 58.3673 54.1731 57.2445C54.1731 56.1217 53.7074 55.2114 53.1293 55.2114C52.5562 55.2114 52.0854 56.1217 52.0854 57.2445Z" fill="white"/>
<path d="M95.2911 51.3119V51.9998L98.1772 51.7671L106.932 53.866L107.131 59.2422H118.966C118.966 59.2422 119.366 58.5241 119.662 56.8196C119.959 55.1151 121.264 52.7887 121.264 52.7887L126.115 51.6811V50.7253L116.546 50.5938L117.109 48.3027H107.924L107.592 50.4723L99.4665 50.7253H97.4682L101.209 49.7069L97.1649 50.4723L95.2911 51.3119Z" fill="white"/>
<path d="M47.6287 56.6629C47.6287 57.644 47.9868 58.4431 48.4319 58.4431C48.8771 58.4431 49.2353 57.644 49.2353 56.6629C49.2353 55.6817 48.8771 54.8826 48.4319 54.8826C47.9868 54.8826 47.6287 55.6817 47.6287 56.6629Z" fill="white"/>
<path d="M65.2865 58.4431V60.4257L76.1344 61.1315C76.0371 59.1995 77.4488 57.1228 78.6621 57.1228C80.0776 57.1228 80.2798 59.1272 80.2798 59.1272L83.3846 59.5709V60.4865L84.807 60.0918V50.8213L68.6584 51.6407L65.2865 58.4431Z" fill="white"/>
<path d="M59.3664 59.055L63.9153 59.399C63.9153 59.399 64.3605 59.6469 64.9848 58.1954C65.6038 56.7439 64.9848 55.4441 64.9848 55.4441L59.4176 55.2114C59.4176 55.2114 58.5939 55.8485 58.4967 57.2445C58.3944 58.6353 59.3664 59.055 59.3664 59.055Z" fill="white"/>
<path d="M46.8049 56.6629H47.2757C47.2603 54.2303 48.6673 54.4425 48.6673 54.4425C49.8904 54.6095 49.5628 57.1333 49.5628 57.1333L51.6043 57.639C51.4866 56.4302 52.1008 54.6752 53.2469 54.7562C54.3931 54.8372 54.8382 56.1318 54.8382 56.1318V58.7011L56.6955 59.1108V55.0494L55.0889 55.0749L53.1293 52.0049L47.0812 52.1516L46.8049 56.6629Z" fill="white"/>
<path d="M85.0731 50.2499V50.4673L85.2163 50.4623L94.4622 50.2599V50.0324L85.0731 50.2499Z" fill="#08A1B5"/>
<path d="M78.3394 22.6507V34.5258L84.1112 32.8466C84.1777 32.8264 84.2544 32.8214 84.3312 32.8316L114.771 37.6413L122.2 36.478C122.451 36.1139 122.86 35.8761 123.326 35.8761C123.643 35.8761 123.93 35.9824 124.165 36.1696L126.816 35.7952L126.708 32.8771L114.776 35.8761L95.4294 31.992L78.3394 22.6507Z" fill="white"/>
<path d="M99.5737 43.0378C99.5737 43.5687 99.7937 44.0391 100.126 44.3071H101.441C101.769 44.0391 101.989 43.5687 101.989 43.0378C101.989 42.2032 101.452 41.5205 100.781 41.5205C100.116 41.5255 99.5737 42.2032 99.5737 43.0378Z" fill="white"/>
<path d="M122.676 43.1641C122.676 43.6447 122.876 44.0644 123.183 44.3071H124.39C124.692 44.0644 124.892 43.6447 124.892 43.1641C124.892 42.4106 124.395 41.7985 123.786 41.7985C123.172 41.7985 122.676 42.4106 122.676 43.1641Z" fill="white"/>
<path d="M78.3395 39.6997V45.4551L84.2492 44.7775L93.9301 44.3071H97.7267L97.8598 40.4987H103.678V44.3071H121.632V40.4987H125.761V44.3071H127.133L126.964 39.811V40.3014H95.6186C95.5879 40.3014 95.5624 40.2964 95.5317 40.2964L84.2596 38.3492L81.6449 38.9461V43.4935L78.3395 43.9946V39.6997Z" fill="white"/>
<path d="M75.2488 45.8093L78.3392 45.4551V34.5258L77.8891 34.6573L75.4023 35.3754L75.3869 36.4073L75.341 39.371L75.3307 40.3874L75.2488 45.8093Z" fill="white"/>
<path d="M47.0812 51.9491L53.2828 51.7671L55.2067 54.7814L66.6784 54.9786L68.4027 51.2412L85.0782 50.4623V50.2498H97.3671L96.7786 50.2296L85.2163 50.4623V59.4278L87.5596 59.7284C87.8565 58.8938 88.3685 57.6239 89.6829 57.6239C91.1995 57.6239 91.8703 59.1333 92.0084 60.6304C93.3175 60.8635 93.4449 61.7959 94.7541 62.029L97.7626 62.0035C97.865 62.3982 98.9549 63.6727 98.9549 63.6727V64.9775L101.36 65.205V65.6654L125.296 64.8763C126.621 64.2846 126.427 61.2046 126.427 61.2046H128.412C128.412 61.2046 128.079 54.7156 128.079 53.5373C128.079 52.3588 129.144 51.7064 129.144 51.7064L125.761 52.3638L121.515 53.3146C121.515 53.3146 120.22 56.1014 120.22 57.1483C120.22 58.2003 119.642 59.8693 119.642 59.8693H106.461L106.328 54.4274L97.906 52.2628H94.8871V51.0842L97.3671 50.2498C98.2162 50.3268 98.5402 50.1524 99.3893 50.2296L99.7684 50.2498L107.259 50.0324L107.556 47.6705H118.168L117.375 50.0324L125.163 50.2498L126.155 50.2296L127.153 44.823H125.761V44.3071H121.632V44.823H103.678V44.3071H97.7268L97.4682 50.0324C97.4682 50.0324 88.706 45.1164 84.0293 45.5109L78.3343 46.1228L75.2335 46.4567L46.4315 49.5467V50.6291C46.3854 51.2157 47.0812 51.9491 47.0812 51.9491Z" fill="white"/>
<path d="M49.4449 43.9431V45.2884L49.7161 45.2277V43.8671L49.4449 43.9431Z" fill="white"/>
<path d="M46.4315 44.3071L46.4366 45.9761L47.6288 45.7031V44.474L46.5747 44.7775L46.4315 44.3071Z" fill="white"/>
<path d="M46.4364 46.487V49.1118L74.6399 45.8801L74.7115 40.5292L51.4508 45.8396L51.3895 48.1307L49.7161 48.3382V46.2393L49.445 46.2998V48.3382L47.6287 48.5354V46.7147L46.549 46.9624L46.4364 46.487Z" fill="white"/>
<path d="M51.4766 44.828L74.7219 39.5126L74.7577 36.5893L51.5124 43.3412L51.4766 44.828Z" fill="white"/>
<path d="M46.4315 38.8044V43.7914L74.7731 35.5627L74.9011 25.751L46.4315 38.8044Z" fill="white"/>
<path d="M46.4313 38.3342C46.4313 38.3342 47.1273 34.1566 48.0227 33.762L87.7901 10.0167C87.7901 10.0167 101.426 3.74026 118.864 12.3078L126.621 30.7327L126.891 36.7791L127.295 44.3955H97.6704L93.9302 39.986L83.2566 33.3717L77.884 34.6573L75.3973 35.3805L75.5559 24.7191L46.4313 38.3342ZM52.9501 31.6176L51.9574 35.421L52.9501 34.9608L53.9428 31.2586L52.9501 31.6176ZM63.3934 25.751L61.8533 30.9147L63.6953 29.8323L64.9387 24.7191L63.3934 25.751ZM65.5834 24.1982L64.2888 29.8273L67.4203 28.0066L68.7149 22.6505L65.5834 24.1982ZM69.7587 22.0133L68.1673 27.5665L70.1065 26.7826L71.35 20.835L69.7587 22.0133ZM72.1481 20.3898L70.7565 26.1909L73.0435 25.3563L74.2869 19.1153L72.1481 20.3898ZM93.9302 29.8323L88.1636 10.477L85.2163 12.2471L84.2493 20.1521C87.872 26.0087 93.9302 29.8323 93.9302 29.8323ZM83.2566 19.7526L83.3897 19.7172L83.8552 13.7543L80.4731 15.5902L79.2809 21.5884L83.2566 19.7526Z" fill="white"/>
<path d="M101.426 66.9095L41.3555 57.5377L101.272 67.8046L101.426 66.9095Z" fill="white"/>
<path d="M126.007 66.2855L65.9365 56.9138L125.854 67.1806L126.007 66.2855Z" fill="white"/>
<path d="M99.214 26.8578L97.2659 20.2435H117.235L119.914 26.8578H99.214Z" fill="#08A1B5"/>
<path d="M110.586 31.4677L111.421 30.2651H102.863L101.715 31.4677H110.586Z" fill="#08A1B5"/>
<path d="M119.492 31.4677L120.319 30.2651H111.852L111.017 31.4677H119.492Z" fill="#08A1B5"/>
<path d="M103.244 15.0323L102.119 11.4246H106.366L107.68 15.0323H103.244Z" fill="#08A1B5"/>
<path d="M121.33 34.875L126.587 30.7662L127.295 44.3955L126.082 43.5938H119.409L121.33 34.875Z" fill="#08A1B5"/>
<path d="M121.33 34.875L126.587 30.7662L127.295 44.3955L126.082 43.5938H119.409L121.33 34.875Z" fill="#08A1B5"/>
<path d="M122.359 36.3915L125.729 33.6724L126.183 42.6918L125.405 42.1613H121.127L122.359 36.3915Z" fill="white"/>
<path d="M102.422 34.7748L94.2327 30.666L97.8726 44.2953L99.0859 43.4935H106.062L102.422 34.7748Z" fill="#08A1B5"/>
<path d="M101.637 36.5316L96.457 33.8729L98.7593 42.6918L99.5265 42.1731H103.939L101.637 36.5316Z" fill="white"/>
<path d="M101.007 41.4892C101.733 41.4892 102.321 40.9059 102.321 40.1864C102.321 39.4669 101.733 38.8836 101.007 38.8836C100.281 38.8836 99.6925 39.4669 99.6925 40.1864C99.6925 40.9059 100.281 41.4892 101.007 41.4892Z" fill="#08A1B5"/>
<path d="M123.352 41.4892C124.022 41.4892 124.565 40.9508 124.565 40.2866C124.565 39.6225 124.022 39.084 123.352 39.084C122.682 39.084 122.138 39.6225 122.138 40.2866C122.138 40.9508 122.682 41.4892 123.352 41.4892Z" fill="#08A1B5"/>
<path d="M30.7368 39.9283L45.903 34.3829C45.1037 36.0996 44.6897 37.9676 44.6897 39.8583V56.2966L30.7368 53.4906V39.9283Z" fill="white"/>
<path d="M43.5439 36.4538L31.6807 40.7296V40.9968L42.9372 37.456V53.8913L31.6807 52.0874V52.2878L43.5439 54.6261V36.4538Z" fill="#08A1B5"/>
<path d="M41.0499 39.7277L31.7479 42.3206V42.8678L41.0499 39.7277Z" fill="#08A1B5"/>
<path d="M31.7479 44.5376V44.07L41.3194 43.2013L31.7479 44.5376Z" fill="#08A1B5"/>
<path d="M31.7479 46.141V45.6065H41.3194L31.7479 46.141Z" fill="#08A1B5"/>
<path d="M31.7479 47.7299V47.2101L41.4543 47.8784L31.7479 47.7299Z" fill="#08A1B5"/>
<path d="M31.7479 49.4147V48.9471L41.5892 50.1497L31.7479 49.4147Z" fill="#08A1B5"/>
<path d="M31.7479 51.0181V50.5503L41.7238 52.5546L31.7479 51.0181Z" fill="#08A1B5"/>
<path d="M20.9631 43.453L29.3213 40.2626V53.2236L20.9631 51.5486V43.453Z" fill="white"/>
<path d="M28.5124 41.5986L21.772 44.0194V44.1708L28.1677 42.1661V51.4713L21.772 50.4499V50.5635L28.5124 51.8873V41.5986Z" fill="#08A1B5"/>
<path d="M26.7598 43.6028L21.772 45.0371V45.3399L26.7598 43.6028Z" fill="#08A1B5"/>
<path d="M21.772 46.2749V45.9943L26.8947 45.4732L21.772 46.2749Z" fill="#08A1B5"/>
<path d="M21.772 47.0771V46.8099H26.8947L21.772 47.0771Z" fill="#08A1B5"/>
<path d="M21.772 47.9234V47.6116L27.0296 48.0124L21.772 47.9234Z" fill="#08A1B5"/>
<path d="M21.772 48.8066V48.5466L27.0296 49.2149L21.772 48.8066Z" fill="#08A1B5"/>
<path d="M21.772 49.7318V49.4824L27.1643 50.5513L21.772 49.7318Z" fill="#08A1B5"/>
<path d="M14.7618 45.578L19.615 43.7363V51.219L14.7618 50.2519V45.578Z" fill="white"/>
<path d="M19.0759 44.5384L15.3011 45.9532V46.0416L18.8828 44.8699V50.3082L15.3011 49.7113V49.7777L19.0759 50.5513V44.5384Z" fill="#08A1B5"/>
<path d="M18.267 45.7404L15.3011 46.5126V46.6758L18.267 45.7404Z" fill="#08A1B5"/>
<path d="M15.3011 47.2774V47.1103L18.4018 46.6761L15.3011 47.2774Z" fill="#08A1B5"/>
<path d="M15.3011 47.7451V47.6114H18.4018L15.3011 47.7451Z" fill="#08A1B5"/>
<path d="M15.3011 48.3464V48.1459L18.4018 48.4131L15.3011 48.3464Z" fill="#08A1B5"/>
<path d="M15.3011 48.8359V48.6799L18.4018 49.0808L15.3011 48.8359Z" fill="#08A1B5"/>
<path d="M15.3011 49.3395V49.2148L18.5366 49.7494L15.3011 49.3395Z" fill="#08A1B5"/>
</svg>
