<svg width="18" height="22" viewBox="0 0 18 22" fill="none" xmlns="http://www.w3.org/2000/svg">
<path d="M16.9684 5.72344C16.195 3.22266 14.1582 1.18589 11.6574 0.4125C10.7809 0.141754 9.87852 0 9.00195 0C7.21016 0 5.48286 0.554297 4.03911 1.63715C1.89918 3.20977 0.623047 5.72344 0.623047 8.37891C0.623047 10.2093 1.20312 11.9497 2.29883 13.4063L9.00195 22L15.7051 13.4063C17.3421 11.2148 17.8062 8.41762 16.9684 5.72344ZM9.00195 12.8906C6.51406 12.8906 4.49023 10.8668 4.49023 8.37891C4.49023 5.89102 6.51406 3.86719 9.00195 3.86719C11.4898 3.86719 13.5137 5.89102 13.5137 8.37891C13.5137 10.8668 11.4898 12.8906 9.00195 12.8906Z" fill="#FFB72D"/>
</svg>
