<svg width="47" height="47" viewBox="0 0 47 47" fill="none" xmlns="http://www.w3.org/2000/svg">
<path d="M23.5002 45.1795C35.4735 45.1795 45.1798 35.4732 45.1798 23.4998C45.1798 11.5265 35.4735 1.82016 23.5002 1.82016C11.5268 1.82016 1.8205 11.5265 1.8205 23.4998C1.8205 35.4732 11.5268 45.1795 23.5002 45.1795Z" fill="#00ACC1"/>
<path d="M23.5 47C10.5431 47 0 36.4587 0 23.5C0 10.5431 10.5431 0 23.5 0C36.4587 0 47 10.5431 47 23.5C47 36.4587 36.4587 47 23.5 47ZM23.5 3.64057C12.5491 3.64057 3.64057 12.5491 3.64057 23.5C3.64057 34.4509 12.5491 43.3594 23.5 43.3594C34.4509 43.3594 43.3594 34.4491 43.3594 23.5C43.3594 12.5491 34.4509 3.64057 23.5 3.64057Z" fill="#00ACC1"/>
<path d="M20.6603 32.1463C20.1725 32.1463 19.7064 31.9515 19.3624 31.602L12.6455 24.7759C11.941 24.0587 11.9501 22.9083 12.6673 22.202C13.3845 21.4994 14.5368 21.5066 15.2412 22.2238L20.6075 27.6774L31.7095 15.4505C32.3884 14.7061 33.5389 14.6533 34.2797 15.3268C35.0242 16.0021 35.0788 17.1525 34.4035 17.8988L22.0073 31.5509C21.6706 31.9223 21.1973 32.1371 20.6967 32.148C20.684 32.1463 20.673 32.1463 20.6603 32.1463Z" fill="white"/>
</svg>
