<svg width="26" height="26" viewBox="0 0 26 26" fill="none" xmlns="http://www.w3.org/2000/svg">
<rect width="26" height="26" rx="3" fill="white"/>
<path d="M7.19586 14.2258C7.05448 14.3905 6.98569 14.6001 7.00248 14.8168C7.01928 15.0334 7.11894 15.2306 7.28415 15.3714L11.2941 18.8089C11.4431 18.9361 11.6278 19.0044 11.8217 19.0044C11.8455 19.0044 11.8699 19.0033 11.8943 19.0011C12.1137 18.9816 12.3114 18.8771 12.4511 18.7076L19.3097 10.3599C19.4473 10.192 19.5117 9.98077 19.4906 9.76465C19.4689 9.54852 19.3655 9.35352 19.1976 9.2154L17.942 8.18407C17.5959 7.90023 17.0834 7.95007 16.7985 8.29619L11.52 14.7209L9.39882 12.9036C9.05865 12.6133 8.54515 12.6517 8.25319 12.9919L7.19586 14.2258Z" fill="#00ACC1"/>
</svg>